HIERARCHY
ROOT Hips
{
    OFFSET 0.000000 0.000000 0.000000
    CHANNELS 6 Xposition Yposition Zposition Zrotation Yrotation Xrotation
    JOINT Chest
    {
        OFFSET 0.000000 1.634758 -0.000000
        CHANNELS 3 Zrotation Yrotation Xrotation
        JOINT Chest2
        {
            OFFSET 0.000000 2.197341 0.000000
            CHANNELS 3 Zrotation Yrotation Xrotation
            JOINT Neck
            {
                OFFSET 0.000000 0.961544 0.000000
                CHANNELS 3 Zrotation Yrotation Xrotation
                JOINT Head
                {
                    OFFSET 0.000000 0.632542 -0.032565
                    CHANNELS 3 Zrotation Yrotation Xrotation
                    End Site
                    {
                        OFFSET -0.000001 0.439502 2.922845
                    }
                }
            }
            JOINT LeftCollar
            {
                OFFSET 0.167536 0.778237 -0.168280
                CHANNELS 3 Zrotation Yrotation Xrotation
                JOINT LeftShoulder
                {
                    OFFSET 0.831514 -0.002900 0.006458
                    CHANNELS 3 Zrotation Yrotation Xrotation
                    JOINT LeftElbow
                    {
                        OFFSET 2.272872 -0.026639 0.059314
                        CHANNELS 3 Zrotation Yrotation Xrotation
                        JOINT LeftWrist
                        {
                            OFFSET 2.081982 -0.024402 0.054333
                            CHANNELS 3 Zrotation Yrotation Xrotation
                            JOINT LeftHandThumb1
                            {
                                OFFSET 0.218903 -0.128645 0.283837
                                CHANNELS 3 Zrotation Yrotation Xrotation
                                JOINT LeftHandThumb2
                                {
                                    OFFSET 0.137157 -0.025101 0.077902
                                    CHANNELS 3 Zrotation Yrotation Xrotation
                                    JOINT LeftHandThumb3
                                    {
                                        OFFSET 0.142771 -0.106576 0.042395
                                        CHANNELS 3 Zrotation Yrotation Xrotation
                                        End Site
                                        {
                                            OFFSET 0.234445 -0.115474 0.059481
                                        }
                                    }
                                }
                            }
                            JOINT LeftHandFore1
                            {
                                OFFSET 0.767340 -0.016076 0.196678
                                CHANNELS 3 Zrotation Yrotation Xrotation
                                JOINT LeftHandFore2
                                {
                                    OFFSET 0.166755 -0.138006 -0.011928
                                    CHANNELS 3 Zrotation Yrotation Xrotation
                                    JOINT LeftHandFore3
                                    {
                                        OFFSET 0.060102 -0.114159 -0.010889
                                        CHANNELS 3 Zrotation Yrotation Xrotation
                                        End Site
                                        {
                                            OFFSET 0.066034 -0.181273 -0.012107
                                        }
                                    }
                                }
                            }
                            JOINT LeftHandMiddle1
                            {
                                OFFSET 0.709887 -0.008320 0.018526
                                CHANNELS 3 Zrotation Yrotation Xrotation
                                JOINT LeftHandMiddle2
                                {
                                    OFFSET 0.172954 -0.173634 -0.001476
                                    CHANNELS 3 Zrotation Yrotation Xrotation
                                    JOINT LeftHandMiddle3
                                    {
                                        OFFSET 0.033347 -0.142272 0.005473
                                        CHANNELS 3 Zrotation Yrotation Xrotation
                                        End Site
                                        {
                                            OFFSET -0.011187 -0.235563 0.003877
                                        }
                                    }
                                }
                            }
                            JOINT LeftHandRing1
                            {
                                OFFSET 0.743817 -0.005823 -0.153668
                                CHANNELS 3 Zrotation Yrotation Xrotation
                                JOINT LeftHandRing2
                                {
                                    OFFSET 0.220537 -0.275777 -0.006616
                                    CHANNELS 3 Zrotation Yrotation Xrotation
                                    JOINT LeftHandRing3
                                    {
                                        OFFSET 0.026553 -0.133000 0.014540
                                        CHANNELS 3 Zrotation Yrotation Xrotation
                                        End Site
                                        {
                                            OFFSET -0.016929 -0.118693 0.006706
                                        }
                                    }
                                }
                            }
                            JOINT LeftHandLittle1
                            {
                                OFFSET 0.689408 -0.053302 -0.308304
                                CHANNELS 3 Zrotation Yrotation Xrotation
                                JOINT LeftHandLittle2
                                {
                                    OFFSET 0.151307 -0.122160 -0.015404
                                    CHANNELS 3 Zrotation Yrotation Xrotation
                                    JOINT LeftHandLittle3
                                    {
                                        OFFSET 0.042990 -0.112386 0.004199
                                        CHANNELS 3 Zrotation Yrotation Xrotation
                                        End Site
                                        {
                                            OFFSET 0.073530 -0.175632 0.005959
                                        }
                                    }
                                }
                            }
                        }
                    }
                }
            }
            JOINT RightCollar
            {
                OFFSET -0.167536 0.778237 -0.168280
                CHANNELS 3 Zrotation Yrotation Xrotation
                JOINT RightShoulder
                {
                    OFFSET -0.831514 -0.002900 0.006457
                    CHANNELS 3 Zrotation Yrotation Xrotation
                    JOINT RightElbow
                    {
                        OFFSET -2.272872 -0.026639 0.059313
                        CHANNELS 3 Zrotation Yrotation Xrotation
                        JOINT RightWrist
                        {
                            OFFSET -2.081982 -0.024402 0.054331
                            CHANNELS 3 Zrotation Yrotation Xrotation
                            JOINT RightHandThumb1
                            {
                                OFFSET -0.218911 -0.128571 0.283837
                                CHANNELS 3 Zrotation Yrotation Xrotation
                                JOINT RightHandThumb2
                                {
                                    OFFSET -0.137157 -0.025101 0.077902
                                    CHANNELS 3 Zrotation Yrotation Xrotation
                                    JOINT RightHandThumb3
                                    {
                                        OFFSET -0.177649 -0.044489 0.000990
                                        CHANNELS 3 Zrotation Yrotation Xrotation
                                        End Site
                                        {
                                            OFFSET -0.249429 -0.088811 0.041642
                                        }
                                    }
                                }
                            }
                            JOINT RightHandFore1
                            {
                                OFFSET -0.767344 -0.015991 0.196679
                                CHANNELS 3 Zrotation Yrotation Xrotation
                                JOINT RightHandFore2
                                {
                                    OFFSET -0.166790 -0.137971 -0.011919
                                    CHANNELS 3 Zrotation Yrotation Xrotation
                                    JOINT RightHandFore3
                                    {
                                        OFFSET -0.060238 -0.113726 -0.014141
                                        CHANNELS 3 Zrotation Yrotation Xrotation
                                        End Site
                                        {
                                            OFFSET -0.066647 -0.179046 -0.029454
                                        }
                                    }
                                }
                            }
                            JOINT RightHandMiddle1
                            {
                                OFFSET -0.709887 -0.008302 0.018525
                                CHANNELS 3 Zrotation Yrotation Xrotation
                                JOINT RightHandMiddle2
                                {
                                    OFFSET -0.172935 -0.173647 -0.001461
                                    CHANNELS 3 Zrotation Yrotation Xrotation
                                    JOINT RightHandMiddle3
                                    {
                                        OFFSET -0.037055 -0.138759 0.027519
                                        CHANNELS 3 Zrotation Yrotation Xrotation
                                        End Site
                                        {
                                            OFFSET -0.000225 -0.224771 0.071474
                                        }
                                    }
                                }
                            }
                            JOINT RightHandRing1
                            {
                                OFFSET -0.743819 -0.005785 -0.153669
                                CHANNELS 3 Zrotation Yrotation Xrotation
                                JOINT RightHandRing2
                                {
                                    OFFSET -0.220556 -0.275762 -0.006621
                                    CHANNELS 3 Zrotation Yrotation Xrotation
                                    JOINT RightHandRing3
                                    {
                                        OFFSET -0.024592 -0.134098 -0.004216
                                        CHANNELS 3 Zrotation Yrotation Xrotation
                                        End Site
                                        {
                                            OFFSET 0.016552 -0.118465 0.010596
                                        }
                                    }
                                }
                            }
                            JOINT RightHandLittle1
                            {
                                OFFSET -0.689403 -0.053298 -0.308303
                                CHANNELS 3 Zrotation Yrotation Xrotation
                                JOINT RightHandLittle2
                                {
                                    OFFSET -0.151312 -0.122158 -0.015407
                                    CHANNELS 3 Zrotation Yrotation Xrotation
                                    JOINT RightHandLittle3
                                    {
                                        OFFSET -0.049392 -0.107020 0.024547
                                        CHANNELS 3 Zrotation Yrotation Xrotation
                                        End Site
                                        {
                                            OFFSET -0.082750 -0.167895 0.035387
                                        }
                                    }
                                }
                            }
                        }
                    }
                }
            }
        }
    }
    JOINT LeftHip
    {
        OFFSET 0.685143 0.673822 -0.044491
        CHANNELS 3 Zrotation Yrotation Xrotation
        JOINT LeftKnee
        {
            OFFSET 0.085364 -3.750208 0.017676
            CHANNELS 3 Zrotation Yrotation Xrotation
            JOINT LeftAnkle
            {
                OFFSET 0.094583 -4.155206 0.019585
                CHANNELS 3 Zrotation Yrotation Xrotation
                JOINT LeftToe
                {
                    OFFSET -0.000000 -0.395925 0.621478
                    CHANNELS 3 Zrotation Yrotation Xrotation
                    End Site
                    {
                        OFFSET -0.000000 -0.077878 0.321152
                    }
                }
            }
        }
    }
    JOINT RightHip
    {
        OFFSET -0.685143 0.673822 -0.044492
        CHANNELS 3 Zrotation Yrotation Xrotation
        JOINT RightKnee
        {
            OFFSET -0.085364 -3.750208 0.017677
            CHANNELS 3 Zrotation Yrotation Xrotation
            JOINT RightAnkle
            {
                OFFSET -0.094583 -4.155206 0.019585
                CHANNELS 3 Zrotation Yrotation Xrotation
                JOINT RightToe
                {
                    OFFSET -0.000000 -0.395925 0.621478
                    CHANNELS 3 Zrotation Yrotation Xrotation
                    End Site
                    {
                        OFFSET -0.000000 -0.077878 0.321152
                    }
                }
            }
        }
    }
}
MOTION
Frames: 7
Frame Time: 0.033333
-0.314345 8.984498 27.946951 164.510605 -35.917648 -169.750168 -4.511589 -9.720197 -1.350665 -0.095915 1.504592 -3.646575 3.899139 -4.305480 9.048045 0.280231 -5.426805 19.518520 9.747515 0.545151 -0.248274 33.066006 -16.635012 -116.130043 177.395691 -69.779800 -178.191071 6.847815 -3.058986 14.241036 -0.000003 0.000002 -0.000003 -0.000002 0.000002 0.000000 0.000002 -0.000001 0.000009 -0.000006 -0.000002 0.000002 0.000001 0.000000 0.000000 0.000006 -0.000003 -0.000003 0.000002 -0.000000 0.000003 0.000000 0.000000 -0.000003 0.000001 -0.000000 0.000002 -0.000003 0.000003 0.000000 0.000003 -0.000004 0.000000 0.000000 -0.000002 0.000002 -0.000003 0.000001 0.000005 0.000003 -0.000001 -0.000002 0.000003 0.000003 -0.000005 14.777591 -3.364302 -0.378050 60.831337 -12.383024 -1.234446 -0.017363 13.200511 -0.157391 -5.308022 13.245514 10.388158 0.000004 -0.000002 -0.000005 0.000001 -0.000002 0.000000 0.000003 0.000007 0.000003 -0.000002 0.000003 0.000000 0.000002 -0.000000 0.000005 -0.000003 -0.000002 -0.000002 0.000001 -0.000002 0.000000 0.000002 0.000002 0.000000 0.000005 -0.000003 0.000000 0.000002 -0.000003 0.000003 -0.000005 0.000002 0.000000 0.000004 -0.000000 0.000000 -0.000008 -0.000000 0.000002 0.000000 -0.000000 -0.000002 0.000003 -0.000002 0.000002 -22.638737 -8.302107 -6.309089 0.013348 0.186089 8.203061 -9.602057 -13.316458 2.576726 0.000002 -0.000003 -0.000002 -18.116306 1.937212 -29.816196 -0.541465 -1.057852 54.212955 -1.431031 -10.881583 14.831107 -0.000003 -0.000014 -0.000015
-0.312651 8.984355 27.946733 164.575790 -35.758865 -169.764175 -4.503563 -9.681863 -1.363708 -0.081562 1.497562 -3.668802 3.902809 -4.278028 8.990261 0.278255 -5.388694 19.412836 9.612952 0.190324 -0.244670 31.498199 -17.009052 -113.246773 177.526169 -68.243675 -178.330917 5.859783 -2.893735 11.580076 -0.000001 0.000003 0.000019 -0.000004 -0.000001 0.000003 0.000003 0.000000 0.000005 0.000004 -0.000005 0.000005 -0.000001 -0.000004 -0.000002 0.000004 0.000001 0.000002 0.000019 0.000003 0.000003 0.000002 -0.000000 0.000002 -0.000001 -0.000001 0.000003 0.000007 -0.000002 0.000003 0.000002 -0.000002 0.000002 0.000000 -0.000001 -0.000002 0.000000 -0.000006 0.000000 0.000002 -0.000001 0.000003 0.000003 -0.000002 -0.000002 14.776992 -3.344455 -0.376053 60.810337 -12.300426 -1.219139 -0.017127 13.112822 -0.156309 -5.291566 13.242431 10.435815 0.000002 -0.000009 -0.000003 0.000289 0.000376 -0.000254 -0.000328 0.000150 -0.000268 -0.001213 0.000020 -0.000338 -0.000738 0.000152 -0.000027 -0.000347 -0.000131 -0.000198 -0.001379 0.000386 0.000265 -0.001208 0.000389 0.000504 -0.000336 -0.000550 0.000217 -0.001563 0.000188 0.000155 -0.000956 -0.000295 -0.000007 -0.000574 0.000367 0.000205 -0.001144 0.000480 0.000610 -0.000712 -0.000299 0.000401 -0.000210 -0.000116 0.000102 -22.593027 -8.308873 -6.417997 0.013549 0.187482 8.265086 -9.583523 -13.189017 2.499025 0.000002 0.000008 0.000006 -18.080666 1.938482 -29.915846 -0.541476 -1.057858 54.213585 -1.475946 -10.798263 14.843634 -0.000003 -0.000009 -0.000012
-0.307745 8.983929 27.945984 164.760208 -35.326626 -169.804962 -4.480870 -9.570763 -1.396720 -0.040305 1.477295 -3.728381 3.911596 -4.205628 8.839860 0.273195 -5.291334 19.135090 9.246017 -0.663610 -0.234508 28.118742 -19.181919 -107.255905 177.765381 -64.695816 -178.591949 8.004539 -2.438069 5.948370 -0.000014 0.000004 0.000001 -0.000003 -0.000002 -0.000001 0.000003 0.000000 0.000004 -0.000017 -0.000011 0.000003 0.000002 -0.000001 0.000003 0.000002 0.000001 -0.000001 0.000005 0.000003 0.000001 -0.000002 -0.000004 0.000003 0.000000 -0.000000 0.000000 -0.000003 -0.000003 0.000004 -0.000003 -0.000001 -0.000002 0.000000 -0.000001 -0.000001 -0.000020 -0.000010 0.000003 0.000003 0.000004 -0.000003 0.000003 -0.000001 -0.000002 14.775497 -3.289351 -0.370296 60.752602 -12.062248 -1.178141 -0.016399 12.844054 -0.152995 -5.243793 13.233236 10.574147 -0.000002 -0.000012 -0.000003 0.001150 0.001509 -0.001019 -0.001325 0.000591 -0.001076 -0.004828 0.000060 -0.001340 -0.002946 0.000591 -0.000111 -0.001389 -0.000524 -0.000770 -0.005499 0.001552 0.001112 -0.004797 0.001561 0.002010 -0.001355 -0.002187 0.000852 -0.006185 0.000738 0.000620 -0.003820 -0.001185 -0.000055 -0.002280 0.001462 0.000811 -0.004564 0.001924 0.002462 -0.002822 -0.001178 0.001583 -0.000832 -0.000466 0.000403 -22.459776 -8.328278 -6.723815 0.014160 0.191635 8.449605 -9.530337 -12.844069 2.278438 -0.000007 -0.000012 -0.000009 -17.973282 1.941399 -30.188148 -0.541509 -1.057884 54.215305 -1.594699 -10.579120 14.876266 0.000002 0.000005 0.000003
-0.299886 8.983231 27.944555 165.047012 -34.686996 -169.870422 -4.445364 -9.392738 -1.440100 0.025095 1.445059 -3.815206 3.922112 -4.103196 8.631679 0.266393 -5.160194 18.744934 8.702391 -1.698420 -0.218868 23.995071 -25.131943 -101.713280 177.965317 -60.647697 -178.817154 15.327465 -1.763941 1.389947 -0.000003 -0.000012 0.000009 -0.000002 0.000004 -0.000005 -0.000005 -0.000005 0.000009 0.000009 -0.000028 0.000002 0.000002 0.000002 0.000002 -0.000002 -0.000001 0.000002 0.000014 -0.000013 0.000001 -0.000005 0.000003 -0.000003 0.000000 -0.000002 -0.000001 0.000007 -0.000012 0.000001 -0.000002 -0.000001 0.000001 0.000003 0.000001 -0.000001 0.000003 -0.000017 -0.000004 0.000003 0.000002 0.000001 0.000003 0.000000 0.000003 14.773774 -3.205835 -0.361104 60.666149 -11.679170 -1.118956 -0.015178 12.378114 -0.147271 -5.167104 13.218019 10.796194 0.000004 -0.000003 -0.000007 0.002587 0.003400 -0.002293 -0.002974 0.001318 -0.002420 -0.010836 0.000142 -0.002997 -0.006612 0.001320 -0.000248 -0.003119 -0.001171 -0.001740 -0.012359 0.003482 0.002483 -0.010768 0.003518 0.004503 -0.003033 -0.004909 0.001906 -0.013907 0.001660 0.001400 -0.008563 -0.002660 -0.000121 -0.005118 0.003280 0.001798 -0.010232 0.004324 0.005534 -0.006350 -0.002650 0.003570 -0.001878 -0.001042 0.000905 -22.243498 -8.359432 -7.194345 0.015196 0.198493 8.754219 -9.447331 -12.336305 1.934226 -0.000002 -0.000003 0.000003 -17.791792 1.945296 -30.591352 -0.541540 -1.057901 54.216919 -1.763316 -10.270437 14.921881 -0.000004 -0.000009 -0.000015
-0.289324 8.982267 27.942295 165.419510 -33.906017 -169.958588 -4.398993 -9.153543 -1.484124 0.112276 1.402123 -3.918064 3.931202 -3.985680 8.400257 0.259169 -5.021102 18.302406 8.040566 -2.595347 -0.198825 18.706877 -34.399250 -97.900223 178.108261 -56.791370 -178.984604 14.624830 -1.105575 -0.598078 -0.000007 -0.000003 0.000003 -0.000005 -0.000002 -0.000003 0.000000 -0.000002 0.000003 0.000000 -0.000005 0.000003 0.000000 -0.000001 -0.000001 0.000003 0.000000 -0.000002 0.000010 0.000004 0.000001 -0.000005 0.000000 -0.000002 0.000002 0.000002 -0.000001 -0.000002 0.000005 -0.000003 -0.000002 0.000001 0.000001 -0.000002 -0.000006 -0.000003 -0.000002 -0.000007 -0.000003 0.000002 -0.000001 -0.000001 0.000002 0.000003 -0.000001 14.772538 -3.100679 -0.348702 60.558800 -11.157372 -1.049078 -0.013460 11.690763 -0.138860 -5.063896 13.196857 11.094960 -0.000001 -0.000014 -0.000007 0.004581 0.006034 -0.004067 -0.005275 0.002339 -0.004294 -0.019236 0.000248 -0.005314 -0.011724 0.002351 -0.000432 -0.005529 -0.002082 -0.003079 -0.021952 0.006173 0.004402 -0.019104 0.006245 0.007990 -0.005381 -0.008703 0.003374 -0.024656 0.002934 0.002471 -0.015189 -0.004713 -0.000212 -0.009089 0.005828 0.003202 -0.018165 0.007669 0.009820 -0.011269 -0.004694 0.006344 -0.003331 -0.001853 0.001598 -21.948311 -8.400799 -7.794246 0.016678 0.207889 9.172163 -9.340284 -11.720054 1.487841 -0.000001 -0.000009 0.000003 -17.533419 1.949605 -31.082832 -0.541543 -1.057908 54.217186 -1.958014 -9.918167 14.973562 -0.000003 -0.000014 -0.000009
-0.276305 8.981055 27.939070 165.860733 -33.049858 -170.067261 -4.344141 -8.859276 -1.519350 0.218212 1.349828 -4.026814 3.935939 -3.868232 8.180021 0.252903 -4.900226 17.869745 7.321734 -3.040389 -0.175713 12.477305 -42.571785 -95.140350 178.226013 -52.676544 -179.129044 13.154623 -0.364182 -2.553899 0.000009 0.000003 0.000002 -0.000002 0.000003 0.000000 -0.000002 0.000001 0.000007 0.000009 0.000002 0.000009 0.000000 -0.000003 0.000002 0.000003 0.000003 -0.000003 0.000017 -0.000001 0.000009 -0.000005 -0.000001 -0.000002 -0.000002 0.000007 -0.000002 0.000005 0.000001 0.000005 0.000002 0.000006 0.000000 -0.000002 -0.000003 0.000003 0.000010 -0.000009 0.000002 0.000000 -0.000002 0.000000 0.000003 0.000005 -0.000002 14.772184 -2.980673 -0.333639 60.437973 -10.493694 -0.976267 -0.011266 10.736077 -0.127242 -4.936564 13.169821 11.463427 0.000000 -0.000000 -0.000005 0.007138 0.009414 -0.006344 -0.008229 0.003644 -0.006688 -0.029977 0.000398 -0.008283 -0.018271 0.003661 -0.000681 -0.008631 -0.003243 -0.004800 -0.034213 0.009637 0.006856 -0.029778 0.009733 0.012457 -0.008390 -0.013575 0.005261 -0.038435 0.004580 0.003852 -0.023679 -0.007353 -0.000338 -0.014176 0.009089 0.004991 -0.028316 0.011956 0.015315 -0.017561 -0.007320 0.009878 -0.005194 -0.002889 0.002500 -21.579781 -8.451439 -8.485192 0.018612 0.219518 9.689830 -9.214854 -11.048911 0.963881 0.000003 0.000014 0.000009 -17.197193 1.953133 -31.620586 -0.541506 -1.057877 54.215149 -2.155117 -9.568036 15.024936 -0.000002 -0.000009 -0.000017
-0.261072 8.979612 27.934757 166.353989 -32.184528 -170.194458 -4.283710 -8.516057 -1.536981 0.339112 1.289405 -4.132118 3.933949 -3.765996 8.005539 0.248939 -4.823803 17.510195 6.619616 -3.097504 -0.151898 7.244834 -49.165688 -93.243027 178.328751 -48.025715 -179.262756 11.681004 0.431167 -4.731799 0.000003 0.000009 -0.000003 -0.000005 -0.000003 0.000003 0.000002 0.000001 0.000002 0.000007 -0.000015 0.000003 -0.000005 -0.000003 0.000002 0.000003 -0.000000 -0.000002 0.000017 -0.000002 0.000002 -0.000009 -0.000009 -0.000002 0.000003 0.000003 0.000000 0.000000 -0.000006 0.000007 0.000000 -0.000003 -0.000003 0.000000 0.000003 0.000003 0.000012 -0.000007 0.000002 0.000002 -0.000006 0.000002 0.000000 -0.000000 0.000000 14.773416 -2.852995 -0.316090 60.309944 -9.669002 -0.908147 -0.008601 9.434422 -0.111517 -4.787512 13.136992 11.894593 -0.000001 -0.000005 -0.000009 0.010262 0.013523 -0.009115 -0.011823 0.005233 -0.009620 -0.043065 0.000569 -0.011900 -0.026252 0.005259 -0.000977 -0.012395 -0.004656 -0.006887 -0.049152 0.013852 0.009856 -0.042779 0.013985 0.017895 -0.012046 -0.019495 0.007561 -0.055209 0.006585 0.005534 -0.034008 -0.010560 -0.000483 -0.020363 0.013059 0.007167 -0.040674 0.017180 0.022002 -0.025226 -0.010512 0.014200 -0.007452 -0.004148 0.003589 -21.145525 -8.510144 -9.227480 0.020976 0.232939 10.288697 -9.075521 -10.376938 0.388855 -0.000002 -0.000003 -0.000002 -16.784946 1.955462 -32.164505 -0.541427 -1.057821 54.210907 -2.330496 -9.266943 15.069756 0.000003 0.000022 0.000034
